<mxfile host="app.diagrams.net" agent="Mozilla/5.0 (Windows NT 10.0; Win64; x64) AppleWebKit/537.36 (KHTML, like Gecko) Chrome/131.0.0.0 Safari/537.36" version="25.0.1">
  <diagram name="Página-1" id="AbdogId9hkJcmcadNvEB">
    <mxGraphModel>
      <root>
        <mxCell id="0" />
        <mxCell id="1" parent="0" />
        <mxCell id="2" value="Inicio" style="whiteSpace=wrap;strokeWidth=2;" vertex="1" parent="1">
          <mxGeometry x="1082" y="8" width="99" height="48" as="geometry" />
        </mxCell>
        <mxCell id="3" value="Recepción de solicitud de pedido" style="rounded=1;arcSize=40;strokeWidth=2" vertex="1" parent="1">
          <mxGeometry x="1025" y="106" width="213" height="66" as="geometry" />
        </mxCell>
        <mxCell id="4" value="Validar datos" style="rhombus;strokeWidth=2;whiteSpace=wrap;" vertex="1" parent="1">
          <mxGeometry x="1061" y="222" width="142" height="142" as="geometry" />
        </mxCell>
        <mxCell id="5" value="Generar cotización" style="whiteSpace=wrap;strokeWidth=2;" vertex="1" parent="1">
          <mxGeometry x="827" y="437" width="196" height="48" as="geometry" />
        </mxCell>
        <mxCell id="6" value="Rechazar solicitud" style="whiteSpace=wrap;strokeWidth=2;" vertex="1" parent="1">
          <mxGeometry x="1170" y="1185" width="190" height="48" as="geometry" />
        </mxCell>
        <mxCell id="7" value="Cliente satisfecho?" style="rhombus;strokeWidth=2;whiteSpace=wrap;" vertex="1" parent="1">
          <mxGeometry x="834" y="535" width="183" height="183" as="geometry" />
        </mxCell>
        <mxCell id="8" value="Registrar pedido" style="whiteSpace=wrap;strokeWidth=2;" vertex="1" parent="1">
          <mxGeometry x="342" y="791" width="177" height="48" as="geometry" />
        </mxCell>
        <mxCell id="9" value="Revisar cotización" style="whiteSpace=wrap;strokeWidth=2;" vertex="1" parent="1">
          <mxGeometry x="831" y="791" width="189" height="48" as="geometry" />
        </mxCell>
        <mxCell id="10" value="Aceptar modificaciones?" style="rhombus;strokeWidth=2;whiteSpace=wrap;" vertex="1" parent="1">
          <mxGeometry x="813" y="889" width="224" height="224" as="geometry" />
        </mxCell>
        <mxCell id="11" value="Generar nueva cotización" style="whiteSpace=wrap;strokeWidth=2;" vertex="1" parent="1">
          <mxGeometry x="877" y="1185" width="243" height="48" as="geometry" />
        </mxCell>
        <mxCell id="12" value="Stock disponible?" style="rhombus;strokeWidth=2;whiteSpace=wrap;" vertex="1" parent="1">
          <mxGeometry x="345" y="915" width="171" height="171" as="geometry" />
        </mxCell>
        <mxCell id="13" value="Preparar pedido" style="whiteSpace=wrap;strokeWidth=2;" vertex="1" parent="1">
          <mxGeometry x="178" y="1185" width="175" height="48" as="geometry" />
        </mxCell>
        <mxCell id="14" value="Notificar cliente" style="whiteSpace=wrap;strokeWidth=2;" vertex="1" parent="1">
          <mxGeometry x="629" y="1347" width="177" height="48" as="geometry" />
        </mxCell>
        <mxCell id="15" value="Pedido completo?" style="rhombus;strokeWidth=2;whiteSpace=wrap;" vertex="1" parent="1">
          <mxGeometry x="179" y="1284" width="175" height="175" as="geometry" />
        </mxCell>
        <mxCell id="16" value="Enviar pedido a cliente" style="whiteSpace=wrap;strokeWidth=2;" vertex="1" parent="1">
          <mxGeometry x="8" y="1612" width="226" height="48" as="geometry" />
        </mxCell>
        <mxCell id="17" value="Esperar envío de productos restantes" style="whiteSpace=wrap;strokeWidth=2;" vertex="1" parent="1">
          <mxGeometry x="284" y="1603" width="255" height="66" as="geometry" />
        </mxCell>
        <mxCell id="18" value="Nuevo stock en X días?" style="rhombus;strokeWidth=2;whiteSpace=wrap;" vertex="1" parent="1">
          <mxGeometry x="612" y="1531" width="210" height="210" as="geometry" />
        </mxCell>
        <mxCell id="19" value="Esperar envío de productos restantes" style="whiteSpace=wrap;strokeWidth=2;" vertex="1" parent="1">
          <mxGeometry x="298" y="1872" width="255" height="66" as="geometry" />
        </mxCell>
        <mxCell id="20" value="Notificar cliente y ofrecer alternativas" style="whiteSpace=wrap;strokeWidth=2;" vertex="1" parent="1">
          <mxGeometry x="613" y="1872" width="248" height="66" as="geometry" />
        </mxCell>
        <mxCell id="21" value="Cliente satisfecho?" style="rhombus;strokeWidth=2;whiteSpace=wrap;" vertex="1" parent="1">
          <mxGeometry x="29" y="1813" width="183" height="183" as="geometry" />
        </mxCell>
        <mxCell id="22" value="Finalizar proceso" style="whiteSpace=wrap;strokeWidth=2;" vertex="1" parent="1">
          <mxGeometry x="30" y="2306" width="182" height="48" as="geometry" />
        </mxCell>
        <mxCell id="23" value="Atender reclamo del cliente" style="whiteSpace=wrap;strokeWidth=2;" vertex="1" parent="1">
          <mxGeometry x="91" y="2069" width="208" height="66" as="geometry" />
        </mxCell>
        <mxCell id="24" value="Resolución del reclamo" style="whiteSpace=wrap;strokeWidth=2;" vertex="1" parent="1">
          <mxGeometry x="82" y="2207" width="226" height="48" as="geometry" />
        </mxCell>
        <mxCell id="25" value="" style="curved=1;startArrow=none;endArrow=block;exitX=0.5;exitY=1.01;entryX=0.5;entryY=0.01;" edge="1" parent="1" source="2" target="3">
          <mxGeometry relative="1" as="geometry">
            <Array as="points" />
          </mxGeometry>
        </mxCell>
        <mxCell id="26" value="" style="curved=1;startArrow=none;endArrow=block;exitX=0.5;exitY=1.01;entryX=0.5;entryY=0;" edge="1" parent="1" source="3" target="4">
          <mxGeometry relative="1" as="geometry">
            <Array as="points" />
          </mxGeometry>
        </mxCell>
        <mxCell id="27" value="Datos correctos" style="curved=1;startArrow=none;endArrow=block;exitX=0;exitY=0.76;entryX=0.5;entryY=0;" edge="1" parent="1" source="4" target="5">
          <mxGeometry relative="1" as="geometry">
            <Array as="points">
              <mxPoint x="925" y="401" />
            </Array>
          </mxGeometry>
        </mxCell>
        <mxCell id="28" value="Datos incorrectos" style="curved=1;startArrow=none;endArrow=block;exitX=1;exitY=0.78;entryX=0.62;entryY=0.01;" edge="1" parent="1" source="4" target="6">
          <mxGeometry relative="1" as="geometry">
            <Array as="points">
              <mxPoint x="1323" y="401" />
              <mxPoint x="1323" y="1149" />
            </Array>
          </mxGeometry>
        </mxCell>
        <mxCell id="29" value="" style="curved=1;startArrow=none;endArrow=block;exitX=0.5;exitY=1.01;entryX=0.5;entryY=0;" edge="1" parent="1" source="5" target="7">
          <mxGeometry relative="1" as="geometry">
            <Array as="points" />
          </mxGeometry>
        </mxCell>
        <mxCell id="30" value="Sí" style="curved=1;startArrow=none;endArrow=block;exitX=0;exitY=0.63;entryX=0.5;entryY=0;" edge="1" parent="1" source="7" target="8">
          <mxGeometry relative="1" as="geometry">
            <Array as="points">
              <mxPoint x="431" y="755" />
            </Array>
          </mxGeometry>
        </mxCell>
        <mxCell id="31" value="No" style="curved=1;startArrow=none;endArrow=block;exitX=0.5;exitY=1;entryX=0.5;entryY=0;" edge="1" parent="1" source="7" target="9">
          <mxGeometry relative="1" as="geometry">
            <Array as="points" />
          </mxGeometry>
        </mxCell>
        <mxCell id="32" value="" style="curved=1;startArrow=none;endArrow=block;exitX=0.5;exitY=1.01;entryX=0.5;entryY=0;" edge="1" parent="1" source="9" target="10">
          <mxGeometry relative="1" as="geometry">
            <Array as="points" />
          </mxGeometry>
        </mxCell>
        <mxCell id="33" value="Sí" style="curved=1;startArrow=none;endArrow=block;exitX=0.13;exitY=1;entryX=0.2;entryY=0.01;" edge="1" parent="1" source="10" target="11">
          <mxGeometry relative="1" as="geometry">
            <Array as="points">
              <mxPoint x="816" y="1149" />
            </Array>
          </mxGeometry>
        </mxCell>
        <mxCell id="34" value="No" style="curved=1;startArrow=none;endArrow=block;exitX=0.95;exitY=1;entryX=0.07;entryY=0.01;" edge="1" parent="1" source="10" target="6">
          <mxGeometry relative="1" as="geometry">
            <Array as="points">
              <mxPoint x="1059" y="1149" />
            </Array>
          </mxGeometry>
        </mxCell>
        <mxCell id="35" value="" style="curved=1;startArrow=none;endArrow=block;exitX=0.75;exitY=0.01;entryX=1;entryY=0.79;" edge="1" parent="1" source="11" target="7">
          <mxGeometry relative="1" as="geometry">
            <Array as="points">
              <mxPoint x="1148" y="1149" />
              <mxPoint x="1148" y="755" />
            </Array>
          </mxGeometry>
        </mxCell>
        <mxCell id="36" value="" style="curved=1;startArrow=none;endArrow=block;exitX=0.5;exitY=1.01;entryX=0.5;entryY=0;" edge="1" parent="1" source="8" target="12">
          <mxGeometry relative="1" as="geometry">
            <Array as="points" />
          </mxGeometry>
        </mxCell>
        <mxCell id="37" value="Sí" style="curved=1;startArrow=none;endArrow=block;exitX=0;exitY=0.95;entryX=0.5;entryY=0.01;" edge="1" parent="1" source="12" target="13">
          <mxGeometry relative="1" as="geometry">
            <Array as="points">
              <mxPoint x="266" y="1149" />
            </Array>
          </mxGeometry>
        </mxCell>
        <mxCell id="38" value="No" style="curved=1;startArrow=none;endArrow=block;exitX=1;exitY=0.76;entryX=0.5;entryY=-0.01;" edge="1" parent="1" source="12" target="14">
          <mxGeometry relative="1" as="geometry">
            <Array as="points">
              <mxPoint x="717" y="1149" />
            </Array>
          </mxGeometry>
        </mxCell>
        <mxCell id="39" value="" style="curved=1;startArrow=none;endArrow=block;exitX=0.5;exitY=1.01;entryX=0.5;entryY=0;" edge="1" parent="1" source="13" target="15">
          <mxGeometry relative="1" as="geometry">
            <Array as="points" />
          </mxGeometry>
        </mxCell>
        <mxCell id="40" value="Sí" style="curved=1;startArrow=none;endArrow=block;exitX=0;exitY=0.92;entryX=0.5;entryY=-0.01;" edge="1" parent="1" source="15" target="16">
          <mxGeometry relative="1" as="geometry">
            <Array as="points">
              <mxPoint x="121" y="1494" />
            </Array>
          </mxGeometry>
        </mxCell>
        <mxCell id="41" value="No" style="curved=1;startArrow=none;endArrow=block;exitX=1;exitY=0.92;entryX=0.5;entryY=0;" edge="1" parent="1" source="15" target="17">
          <mxGeometry relative="1" as="geometry">
            <Array as="points">
              <mxPoint x="411" y="1494" />
            </Array>
          </mxGeometry>
        </mxCell>
        <mxCell id="42" value="" style="curved=1;startArrow=none;endArrow=block;exitX=0.5;exitY=1;entryX=0.5;entryY=0;" edge="1" parent="1" source="14" target="18">
          <mxGeometry relative="1" as="geometry">
            <Array as="points" />
          </mxGeometry>
        </mxCell>
        <mxCell id="43" value="Sí" style="curved=1;startArrow=none;endArrow=block;exitX=0;exitY=0.97;entryX=0.64;entryY=0;" edge="1" parent="1" source="18" target="19">
          <mxGeometry relative="1" as="geometry">
            <Array as="points">
              <mxPoint x="567" y="1777" />
            </Array>
          </mxGeometry>
        </mxCell>
        <mxCell id="44" value="No" style="curved=1;startArrow=none;endArrow=block;exitX=0.57;exitY=1;entryX=0.5;entryY=0;" edge="1" parent="1" source="18" target="20">
          <mxGeometry relative="1" as="geometry">
            <Array as="points">
              <mxPoint x="737" y="1777" />
            </Array>
          </mxGeometry>
        </mxCell>
        <mxCell id="45" value="" style="curved=1;startArrow=none;endArrow=block;exitX=0.5;exitY=1;entryX=0.48;entryY=0;" edge="1" parent="1" source="17" target="19">
          <mxGeometry relative="1" as="geometry">
            <Array as="points">
              <mxPoint x="411" y="1777" />
            </Array>
          </mxGeometry>
        </mxCell>
        <mxCell id="46" value="" style="curved=1;startArrow=none;endArrow=block;exitX=0.5;exitY=1;entryX=0.5;entryY=0;" edge="1" parent="1" source="16" target="21">
          <mxGeometry relative="1" as="geometry">
            <Array as="points" />
          </mxGeometry>
        </mxCell>
        <mxCell id="47" value="Sí" style="curved=1;startArrow=none;endArrow=block;exitX=0.21;exitY=1;entryX=0.3;entryY=0;" edge="1" parent="1" source="21" target="22">
          <mxGeometry relative="1" as="geometry">
            <Array as="points">
              <mxPoint x="47" y="2033" />
              <mxPoint x="47" y="2281" />
            </Array>
          </mxGeometry>
        </mxCell>
        <mxCell id="48" value="No" style="curved=1;startArrow=none;endArrow=block;exitX=0.79;exitY=1;entryX=0.5;entryY=0;" edge="1" parent="1" source="21" target="23">
          <mxGeometry relative="1" as="geometry">
            <Array as="points">
              <mxPoint x="195" y="2033" />
            </Array>
          </mxGeometry>
        </mxCell>
        <mxCell id="49" value="" style="curved=1;startArrow=none;endArrow=block;exitX=0.5;exitY=1;entryX=0.5;entryY=0.01;" edge="1" parent="1" source="23" target="24">
          <mxGeometry relative="1" as="geometry">
            <Array as="points" />
          </mxGeometry>
        </mxCell>
        <mxCell id="50" value="" style="curved=1;startArrow=none;endArrow=block;exitX=0.5;exitY=1.02;entryX=0.7;entryY=0;" edge="1" parent="1" source="24" target="22">
          <mxGeometry relative="1" as="geometry">
            <Array as="points">
              <mxPoint x="195" y="2281" />
            </Array>
          </mxGeometry>
        </mxCell>
      </root>
    </mxGraphModel>
  </diagram>
</mxfile>
